# xmcd
#
# Track frame offsets:
#	150
#	11287
#	28485
#	37172
#	53167
#	63352
#	77460
#	95567
#	106490
#	119080
#	135495
#	145885
#	158765
#	169590
#	182295
#	196187
#	207940
#	221507
#	233025
#	249437
#	261450
#	274440
#	285142
#	301307
#	316335
#
# Disc length: 4464 seconds
#
# Revision: 1
# Processed by: cddbd v1.4PL0 Copyright (c) Steve Scherf et al.
# Submitted via: audiograbber 1.82.02
#
DISCID=62116e19
DTITLE=Jim Silvers - Music Makin' Mama From Memphis
DYEAR=1991
DGENRE=Country
TTITLE0=Cannonball Yodel
TTITLE1=Paul's Saloon
TTITLE2=My, My, My
TTITLE3=Eash Season Changes You
TTITLE4=Goodbye California (Hello Illinois)
TTITLE5=You Gotta Let All The Girls Know You're A Cowboy
TTITLE6=I Wanna Sees Las Vegas
TTITLE7=Waltz Across Texas
TTITLE8=Motel 2017
TTITLE9=Old Faithful
TTITLE10=Music Makin' Mama From Memphis
TTITLE11=The Last To Get The News
TTITLE12=Julie
TTITLE13=Cash On The Barrelhead
TTITLE14=For Your Own Good
TTITLE15=Ate The Whole Damn Hog
TTITLE16=Call Me A Cab
TTITLE17=Blue Night
TTITLE18=Cryin' My Heart Out Over You
TTITLE19=Ain't It Strange
TTITLE20=The Last To Get The News
TTITLE21=Music Makin' Mama From Memphis
TTITLE22=Losing You May Be The Best Thing Yet
TTITLE23=A Scrap Of Paper And A 20 Cent Pen
TTITLE24=Ocean of Dreams
EXTD=
EXTT0=
EXTT1=
EXTT2=
EXTT3=
EXTT4=
EXTT5=
EXTT6=
EXTT7=
EXTT8=
EXTT9=
EXTT10=
EXTT11=
EXTT12=
EXTT13=
EXTT14=
EXTT15=
EXTT16=
EXTT17=
EXTT18=
EXTT19=
EXTT20=
EXTT21=
EXTT22=
EXTT23=
EXTT24=
PLAYORDER=
